<?xml version="1.0" encoding="utf-8"?>
<!-- Generator: Adobe Illustrator 16.0.0, SVG Export Plug-In . SVG Version: 6.00 Build 0)  -->
<!DOCTYPE svg PUBLIC "-//W3C//DTD SVG 1.1//EN" "http://www.w3.org/Graphics/SVG/1.1/DTD/svg11.dtd">
<svg version="1.1" id="Layer_1" xmlns="http://www.w3.org/2000/svg" xmlns:xlink="http://www.w3.org/1999/xlink" x="0px" y="0px"
	 width="136.981px" height="208.351px" viewBox="229.369 322.168 136.981 208.351"
	 enable-background="new 229.369 322.168 136.981 208.351" xml:space="preserve">
<path fill="#FFFFFF" d="M356.545,470.312v10.823h-9.134v-54.455v-5.073v-11.161l0,0c0.338-1.69-0.676-4.059-1.693-5.749
	c-1.351-2.706-3.381-4.736-4.056-7.442c-0.676-4.395,0-8.794,0-12.852c0-1.354-0.338-4.059-1.014-4.059
	c-5.074-0.676-4.398-4.734-5.074-8.117c-1.017-6.086-1.354-6.086-7.104-4.058c-1.014,0.337-2.368,0.677-4.061,1.353
	c0-4.396,0.342-8.456,0-12.514c-0.338-4.399-2.026-5.074-5.749-2.368c-2.03,1.69-4.395,3.044-6.425,4.734
	c-0.338-5.749-0.338-11.161-0.676-16.234c0-1.353-0.679-3.721-2.03-4.059c-1.354-0.338-2.705,1.353-3.723,2.368
	c-3.043,3.043-5.75,6.426-9.468,10.823c-0.675-6.764-1.017-11.838-1.693-17.25c-0.337-1.69-1.688-4.396-2.368-4.396
	c-0.675,0-2.368,2.028-4.395,3.381c0-2.028,0.338-4.396,0-6.086c-0.679-2.031-1.017-5.751-3.385-5.751
	c-2.368,0.678-4.394,2.706-5.073,4.736c-7.1,19.955-17.248,38.558-29.083,56.145c-1.355,2.031-2.031,4.059-2.031,6.765v0.678v91.32
	h-9.135v-10.823h-9.808v29.763h9.133v-9.13h9.81v7.441v10.485c0,0,0.338,20.971,20.291,20.971c11.502,0,20.295,0,26.044,0
	c4.061,0,6.429,0,6.429,0c5.75,0,14.542,0,26.041,0c19.957,0,20.295-20.971,20.295-20.971v-10.485v-7.441h9.81v9.13h9.13v-29.763
	h-9.806V470.312z M337.942,382.711c0,0.677,0,1.353,0.339,2.031c-7.104,0.337-14.209,0.674-21.309,1.013c0,0.34,0,1.014,0,1.353
	c6.762,0,13.866,0,20.628,0c0,0.677,0,1.016,0,1.692c-5.749,0.676-11.16,1.013-16.909,1.691c0,0.337,0,1.014,0,1.353
	c5.411,0,11.16,0,16.572,0c0,0.674,0,1.016,0,1.69c-4.057,0.338-7.78,0.678-11.837,1.016c0,0.338,0,1.015,0,1.353
	c3.72,0.338,7.78,0.338,11.499,0.676c0,0.34,0,1.016,0,1.353c-4.394,0.34-8.793,0.678-14.204,1.353
	c5.749,4.399,13.19-2.365,18.265,5.074c-9.472,0.338-17.927,1.016-26.044,1.016c-15.222,0.338-30.443,0.678-45.323,1.353
	c-5.074,0.338-8.117-1.69-9.472-6.089c-1.351-3.719-4.394-12.513-3.043-12.176C261.165,389.139,310.882,382.036,337.942,382.711z
	 M332.527,370.874c0.342,2.368,0.68,4.736,0.68,6.765c0,1.016-1.692,2.368-2.706,2.706c-14.884,1.353-30.105,2.705-42.279,3.721
	C300.738,380.006,316.293,375.61,332.527,370.874z M321.705,355.992c0.341,0,0.341,2.706,0.341,3.721
	c-0.341,4.396-0.679,6.764-1.354,11.161c0,1.016-2.03,2.03-3.044,2.368c-15.559,4.058-31.118,8.117-46.339,12.175
	c0-0.337-0.338-1.014-0.338-1.353C288.56,377.638,306.487,367.83,321.705,355.992z M309.192,344.491
	c-0.337,6.089-1.017,11.838-1.354,17.587c0,1.016-1.351,2.031-2.368,3.046c-7.437,5.749-30.776,15.896-38.556,17.587
	C280.105,370.535,294.309,358.021,309.192,344.491z M265.896,374.932c6.429-13.19,12.516-26.042,18.603-38.558
	C285.854,352.271,274.694,363.094,265.896,374.932z M292.279,337.727c0,9.811,2.368,19.957-8.118,27.06
	c-5.749,4.059-11.16,8.793-16.572,13.189C276.044,364.786,284.161,351.596,292.279,337.727z M277.737,468.282
	c-6.428,0-11.84-5.411-11.84-11.836h23.339C289.573,462.871,284.499,468.282,277.737,468.282z M317.985,468.282
	c-6.425,0-11.835-5.411-11.835-11.836h23.333C329.825,462.871,324.41,468.282,317.985,468.282z M339.294,410.109
	c-17.589,0.675-35.175,1.013-52.765,1.353c-6.762,0.338-13.866,0-20.633,0.338c-3.719,0-6.762-1.016-8.117-4.396
	c-2.368-5.412-4.394-11.163-6.087-17.25c-0.337-1.692,0.338-4.398,1.355-5.75c12.174-18.263,22.659-37.206,29.764-57.836
	c0-0.338,0.675-0.678,1.013-1.015c0.337,0,0.675,0.337,1.018,0.337c-2.03,6.089-3.723,12.516-6.429,17.927
	c-6.762,13.191-13.866,25.705-21.308,38.559c-1.351,2.705-2.706,4.058-2.368,8.117c0.675,6.086,4.061,15.219,8.117,17.587
	c1.355,1.015,3.723,1.015,5.411,1.015c23.339-0.678,46.678-1.354,70.017-2.03c2.025,0,3.043-0.338,5.073,0
	c0,0.677,1.013,2.368,1.013,3.046C342.675,410.109,340.986,410.109,339.294,410.109z"/>
</svg>
