<?xml version="1.0" encoding="utf-8"?>
<!-- Generator: Adobe Illustrator 22.1.0, SVG Export Plug-In . SVG Version: 6.00 Build 0)  -->
<svg version="1.1" id="Layer_1" xmlns="http://www.w3.org/2000/svg" xmlns:xlink="http://www.w3.org/1999/xlink" x="0px" y="0px"
	 viewBox="0 0 792 612" style="enable-background:new 0 0 792 612;" xml:space="preserve">
<style type="text/css">
	.st0{fill:#414042;}
	.st1{fill:#76851C;}
</style>
<g>
	<path class="st0" d="M299.4,345.5v3.9h8.1v3.1h-8.1v7h-3.1v-17.1h11.2v3.1H299.4z"/>
	<path class="st0" d="M321.4,359.6l-5.1-7h-2.7v7h-3.1V351v-8.6h8.1c0.9,0,1.8,0.2,2.6,0.7s1.4,1,1.8,1.8c0.4,0.8,0.7,1.6,0.7,2.6
		c0,1.2-0.3,2.2-1,3.1c-0.7,0.9-1.6,1.5-2.7,1.8l5.2,7.2H321.4z M318.6,349.5c0.6,0,1-0.2,1.4-0.5c0.4-0.4,0.6-0.8,0.6-1.4
		c0-0.6-0.2-1.1-0.5-1.4c-0.4-0.4-0.8-0.5-1.4-0.5h-5v3.9H318.6z"/>
	<path class="st0" d="M326.5,359.6l6.9-17.1h3.3l6.9,17.1h-3.3l-1.4-3.6h-7.5l-1.4,3.6H326.5z M332.5,352.9h5l-2.5-6.3L332.5,352.9z
		"/>
	<path class="st0" d="M348.5,359.6h-3.1v-17.1h3.4l8.6,12.2v-12.2h3.1v17.1H357l-8.6-12.2V359.6z"/>
	<path class="st0" d="M375.1,359.6l-6.3-7.4l-1.7,1.6v5.9H364v-17.1h3.1v7.1l7.6-7.1h4.5l-8.2,7.6l8.1,9.6H375.1z"/>
	<path class="st0" d="M385.1,345.5v3.9h9v3.1h-9v3.9h9v3.1h-12v-17.1h12v3.1H385.1z"/>
	<path class="st0" d="M400.2,359.6h-3.1v-17.1h3.4l8.6,12.2v-12.2h3.1v17.1h-3.4l-8.6-12.2V359.6z"/>
</g>
<g>
	<path class="st1" d="M426.1,359.6l-5.1-7h-2.7v7h-3.1V351v-8.6h8.1c0.9,0,1.8,0.2,2.6,0.7c0.8,0.4,1.4,1,1.8,1.8
		c0.4,0.8,0.7,1.6,0.7,2.6c0,1.2-0.3,2.2-1,3.1c-0.7,0.9-1.6,1.5-2.7,1.8l5.2,7.2H426.1z M423.3,349.5c0.6,0,1-0.2,1.4-0.5
		c0.4-0.4,0.6-0.8,0.6-1.4c0-0.6-0.2-1.1-0.5-1.4c-0.4-0.4-0.8-0.5-1.4-0.5h-5v3.9H423.3z"/>
	<path class="st1" d="M435.1,345.5v3.9h9v3.1h-9v3.9h9v3.1h-12v-17.1h12v3.1H435.1z"/>
	<path class="st1" d="M446.2,359.6l6.9-17.1h3.3l6.9,17.1h-3.3l-1.4-3.6H451l-1.4,3.6H446.2z M452.2,352.9h5l-2.5-6.3L452.2,352.9z"
		/>
	<path class="st1" d="M471.4,359.6h-6.2v-17.1h6.2c1.6,0,3,0.4,4.3,1.1c1.3,0.7,2.3,1.8,3,3.1c0.7,1.3,1.1,2.8,1.1,4.4
		c0,1.6-0.4,3.1-1.1,4.4c-0.7,1.3-1.8,2.3-3,3.1C474.4,359.2,473,359.6,471.4,359.6z M468.2,356.5h3.2c1,0,2-0.2,2.8-0.7
		c0.8-0.5,1.5-1.1,1.9-2c0.5-0.8,0.7-1.8,0.7-2.8s-0.2-2-0.7-2.8c-0.5-0.8-1.1-1.5-1.9-2c-0.8-0.5-1.7-0.7-2.8-0.7h-3.2V356.5z"/>
	<path class="st1" d="M488.8,360c-1.1,0-2.1-0.2-3-0.5c-0.9-0.4-1.7-0.8-2.4-1.5c-0.7-0.6-1.1-1.3-1.3-2.1l3-0.9
		c0.1,0.5,0.5,0.9,1.2,1.3c0.7,0.4,1.6,0.7,2.6,0.7c0.7,0,1.4-0.1,2-0.3c0.6-0.2,1-0.5,1.4-0.9c0.3-0.4,0.5-0.7,0.5-1.1
		c0-0.5-0.3-0.9-0.8-1.4c-0.5-0.4-1.2-0.7-2-0.8c-0.3-0.1-0.6-0.1-0.8-0.1c-0.2,0-0.4-0.1-0.4-0.1c-0.8-0.1-1.2-0.2-1.4-0.3
		c-0.9-0.2-1.8-0.5-2.5-1c-0.7-0.5-1.3-1-1.7-1.7c-0.4-0.7-0.6-1.4-0.6-2.2c0-0.9,0.3-1.8,0.9-2.5c0.6-0.8,1.3-1.4,2.3-1.8
		c1-0.4,2.1-0.7,3.2-0.7c1.5,0,2.7,0.3,3.9,1c1.1,0.7,1.9,1.5,2.3,2.6l-2.9,1.1c-0.2-0.4-0.5-0.8-1.1-1.1c-0.6-0.3-1.3-0.5-2.1-0.5
		s-1.6,0.2-2.3,0.6c-0.7,0.4-1,0.8-1,1.4c0,0.4,0.2,0.7,0.6,1.1c0.4,0.4,1,0.6,1.6,0.7h0l0.1,0l1.2,0.2c0.1,0,0.5,0.1,1.2,0.2
		c1,0.2,2,0.5,2.8,1c0.8,0.5,1.4,1.1,1.9,1.9c0.5,0.7,0.7,1.5,0.7,2.4c0,1-0.3,1.9-0.9,2.7c-0.6,0.8-1.4,1.5-2.5,1.9
		C491.2,359.8,490.1,360,488.8,360z"/>
</g>
<path class="st1" d="M431,315.4v3.2h-2.7v-16.1V301v-3.3c0,0,0,0,0,0c0.1-0.5-0.2-1.2-0.5-1.7c-0.4-0.8-1-1.4-1.2-2.2
	c-0.2-1.3,0-2.6,0-3.8c0-0.4-0.1-1.2-0.3-1.2c-1.5-0.2-1.3-1.4-1.5-2.4c-0.3-1.8-0.4-1.8-2.1-1.2c-0.3,0.1-0.7,0.2-1.2,0.4
	c0-1.3,0.1-2.5,0-3.7c-0.1-1.3-0.6-1.5-1.7-0.7c-0.6,0.5-1.3,0.9-1.9,1.4c-0.1-1.7-0.1-3.3-0.2-4.8c0-0.4-0.2-1.1-0.6-1.2
	c-0.4-0.1-0.8,0.4-1.1,0.7c-0.9,0.9-1.7,1.9-2.8,3.2c-0.2-2-0.3-3.5-0.5-5.1c-0.1-0.5-0.5-1.3-0.7-1.3c-0.2,0-0.7,0.6-1.3,1
	c0-0.6,0.1-1.3,0-1.8c-0.2-0.6-0.3-1.7-1-1.7c-0.7,0.2-1.3,0.8-1.5,1.4c-2.1,5.9-5.1,11.4-8.6,16.6c-0.4,0.6-0.6,1.2-0.6,2
	c0,0,0,0.2,0,0.2l0,27h-2.7v-3.2h-2.9v8.8h2.7v-2.7h2.9v2.2v3.1c0,0,0.1,6.2,6,6.2c3.4,0,6,0,7.7,0c1.2,0,1.9,0,1.9,0
	c1.7,0,4.3,0,7.7,0c5.9,0,6-6.2,6-6.2v-3.1v-2.2h2.9v2.7h2.7v-8.8H431z M425.5,289.5c0,0.2,0,0.4,0.1,0.6c-2.1,0.1-4.2,0.2-6.3,0.3
	c0,0.1,0,0.3,0,0.4c2,0,4.1,0,6.1,0c0,0.2,0,0.3,0,0.5c-1.7,0.2-3.3,0.3-5,0.5c0,0.1,0,0.3,0,0.4c1.6,0,3.3,0,4.9,0
	c0,0.2,0,0.3,0,0.5c-1.2,0.1-2.3,0.2-3.5,0.3c0,0.1,0,0.3,0,0.4c1.1,0.1,2.3,0.1,3.4,0.2c0,0.1,0,0.3,0,0.4
	c-1.3,0.1-2.6,0.2-4.2,0.4c1.7,1.3,3.9-0.7,5.4,1.5c-2.8,0.1-5.3,0.3-7.7,0.3c-4.5,0.1-9,0.2-13.4,0.4c-1.5,0.1-2.4-0.5-2.8-1.8
	c-0.4-1.1-1.3-3.7-0.9-3.6C402.8,291.4,417.5,289.3,425.5,289.5z M423.9,286c0.1,0.7,0.2,1.4,0.2,2c0,0.3-0.5,0.7-0.8,0.8
	c-4.4,0.4-8.9,0.8-12.5,1.1C414.5,288.7,419.1,287.4,423.9,286z M420.7,281.6c0.1,0,0.1,0.8,0.1,1.1c-0.1,1.3-0.2,2-0.4,3.3
	c0,0.3-0.6,0.6-0.9,0.7c-4.6,1.2-9.2,2.4-13.7,3.6c0-0.1-0.1-0.3-0.1-0.4C410.9,288,416.2,285.1,420.7,281.6z M417,278.2
	c-0.1,1.8-0.3,3.5-0.4,5.2c0,0.3-0.4,0.6-0.7,0.9c-2.2,1.7-9.1,4.7-11.4,5.2C408.4,285.9,412.6,282.2,417,278.2z M404.2,287.2
	c1.9-3.9,3.7-7.7,5.5-11.4C410.1,280.5,406.8,283.7,404.2,287.2z M412,276.2c0,2.9,0.7,5.9-2.4,8c-1.7,1.2-3.3,2.6-4.9,3.9
	C407.2,284.2,409.6,280.3,412,276.2z M407.7,314.8c-1.9,0-3.5-1.6-3.5-3.5h6.9C411.2,313.2,409.7,314.8,407.7,314.8z M419.6,314.8
	c-1.9,0-3.5-1.6-3.5-3.5h6.9C423.1,313.2,421.5,314.8,419.6,314.8z M425.9,297.6c-5.2,0.2-10.4,0.3-15.6,0.4c-2,0.1-4.1,0-6.1,0.1
	c-1.1,0-2-0.3-2.4-1.3c-0.7-1.6-1.3-3.3-1.8-5.1c-0.1-0.5,0.1-1.3,0.4-1.7c3.6-5.4,6.7-11,8.8-17.1c0-0.1,0.2-0.2,0.3-0.3
	c0.1,0,0.2,0.1,0.3,0.1c-0.6,1.8-1.1,3.7-1.9,5.3c-2,3.9-4.1,7.6-6.3,11.4c-0.4,0.8-0.8,1.2-0.7,2.4c0.2,1.8,1.2,4.5,2.4,5.2
	c0.4,0.3,1.1,0.3,1.6,0.3c6.9-0.2,13.8-0.4,20.7-0.6c0.6,0,0.9-0.1,1.5,0c0,0.2,0.3,0.7,0.3,0.9
	C426.9,297.6,426.4,297.6,425.9,297.6z"/>
</svg>
