<?xml version="1.0" encoding="UTF-8"?>
<!DOCTYPE svg  PUBLIC '-//W3C//DTD SVG 1.1//EN'  'http://www.w3.org/Graphics/SVG/1.1/DTD/svg11.dtd'>
<svg width="136.98px" height="208.35px" enable-background="new 229.369 322.168 136.981 208.351" version="1.1" viewBox="229.369 322.168 136.981 208.351" xml:space="preserve" xmlns="http://www.w3.org/2000/svg">
<path d="m356.54 470.31v10.823h-9.134v-70.689c0.338-1.69-0.676-4.059-1.693-5.749-1.351-2.706-3.381-4.736-4.056-7.442-0.676-4.395 0-8.794 0-12.852 0-1.354-0.338-4.059-1.014-4.059-5.074-0.676-4.398-4.734-5.074-8.117-1.017-6.086-1.354-6.086-7.104-4.058-1.014 0.337-2.368 0.677-4.061 1.353 0-4.396 0.342-8.456 0-12.514-0.338-4.399-2.026-5.074-5.749-2.368-2.03 1.69-4.395 3.044-6.425 4.734-0.338-5.749-0.338-11.161-0.676-16.234 0-1.353-0.679-3.721-2.03-4.059-1.354-0.338-2.705 1.353-3.723 2.368-3.043 3.043-5.75 6.426-9.468 10.823-0.675-6.764-1.017-11.838-1.693-17.25-0.337-1.69-1.688-4.396-2.368-4.396-0.675 0-2.368 2.028-4.395 3.381 0-2.028 0.338-4.396 0-6.086-0.679-2.031-1.017-5.751-3.385-5.751-2.368 0.678-4.394 2.706-5.073 4.736-7.1 19.955-17.248 38.558-29.083 56.145-1.355 2.031-2.031 4.059-2.031 6.765v91.998h-9.135v-10.823h-9.808v29.763h9.133v-9.13h9.81v17.926s0.338 20.971 20.291 20.971h26.044 6.429 26.041c19.957 0 20.295-20.971 20.295-20.971v-17.926h9.81v9.13h9.13v-29.763h-9.806v-0.679zm-18.603-87.601c0 0.677 0 1.353 0.339 2.031-7.104 0.337-14.209 0.674-21.309 1.013v1.353h20.628v1.692c-5.749 0.676-11.16 1.013-16.909 1.691v1.353h16.572v1.69c-4.057 0.338-7.78 0.678-11.837 1.016v1.353c3.72 0.338 7.78 0.338 11.499 0.676v1.353c-4.394 0.34-8.793 0.678-14.204 1.353 5.749 4.399 13.19-2.365 18.265 5.074-9.472 0.338-17.927 1.016-26.044 1.016-15.222 0.338-30.443 0.678-45.323 1.353-5.074 0.338-8.117-1.69-9.472-6.089-1.351-3.719-4.394-12.513-3.043-12.176 4.061 0.676 53.778-6.427 80.838-5.752zm-5.415-11.837c0.342 2.368 0.68 4.736 0.68 6.765 0 1.016-1.692 2.368-2.706 2.706-14.884 1.353-30.105 2.705-42.279 3.721 12.516-4.06 28.071-8.456 44.305-13.192zm-10.822-14.882c0.341 0 0.341 2.706 0.341 3.721-0.341 4.396-0.679 6.764-1.354 11.161 0 1.016-2.03 2.03-3.044 2.368-15.559 4.058-31.118 8.117-46.339 12.175 0-0.337-0.338-1.014-0.338-1.353 17.589-6.426 35.516-16.234 50.734-28.072zm-12.513-11.501c-0.337 6.089-1.017 11.838-1.354 17.587 0 1.016-1.351 2.031-2.368 3.046-7.437 5.749-30.776 15.896-38.556 17.587 13.191-12.176 27.395-24.69 42.278-38.22zm-43.296 30.441c6.429-13.19 12.516-26.042 18.603-38.558 1.355 15.897-9.805 26.72-18.603 38.558zm26.383-37.205c0 9.811 2.368 19.957-8.118 27.06-5.749 4.059-11.16 8.793-16.572 13.189 8.455-13.19 16.572-26.38 24.69-40.249zm-14.542 130.56c-6.428 0-11.84-5.411-11.84-11.836h23.339c0.337 6.425-4.737 11.836-11.499 11.836zm40.248 0c-6.425 0-11.835-5.411-11.835-11.836h23.333c0.342 6.425-5.073 11.836-11.498 11.836zm21.309-58.173c-17.589 0.675-35.175 1.013-52.765 1.353-6.762 0.338-13.866 0-20.633 0.338-3.719 0-6.762-1.016-8.117-4.396-2.368-5.412-4.394-11.163-6.087-17.25-0.337-1.692 0.338-4.398 1.355-5.75 12.174-18.263 22.659-37.206 29.764-57.836 0-0.338 0.675-0.678 1.013-1.015 0.337 0 0.675 0.337 1.018 0.337-2.03 6.089-3.723 12.516-6.429 17.927-6.762 13.191-13.866 25.705-21.308 38.559-1.351 2.705-2.706 4.058-2.368 8.117 0.675 6.086 4.061 15.219 8.117 17.587 1.355 1.015 3.723 1.015 5.411 1.015 23.339-0.678 46.678-1.354 70.017-2.03 2.025 0 3.043-0.338 5.073 0 0 0.677 1.013 2.368 1.013 3.046-1.693-2e-3 -3.382-2e-3 -5.074-2e-3z" fill="#fff"/>
</svg>
