<?xml version="1.0" encoding="utf-8"?>
<!-- Generator: Adobe Illustrator 16.0.0, SVG Export Plug-In . SVG Version: 6.00 Build 0)  -->
<!DOCTYPE svg PUBLIC "-//W3C//DTD SVG 1.1//EN" "http://www.w3.org/Graphics/SVG/1.1/DTD/svg11.dtd">
<svg version="1.1" id="Layer_1" xmlns="http://www.w3.org/2000/svg" xmlns:xlink="http://www.w3.org/1999/xlink" x="0px" y="0px"
	 width="154.236px" height="68.31px" viewBox="228.959 369.418 154.236 68.31"
	 enable-background="new 228.959 369.418 154.236 68.31" xml:space="preserve">
<g>
	<path fill="#414042" d="M231.354,426.522v3.014h6.259v2.396h-6.259v5.409h-2.396v-13.214h8.655v2.396H231.354z"/>
	<path fill="#414042" d="M248.354,437.418l-3.941-5.409h-2.086v5.409h-2.396v-6.646v-6.646h6.259c0.695,0,1.391,0.155,2.009,0.541
		c0.618,0.387,1.082,0.773,1.391,1.391c0.309,0.619,0.541,1.237,0.541,2.01c0,0.927-0.232,1.7-0.773,2.396
		c-0.541,0.695-1.236,1.159-2.086,1.391l4.019,5.563H248.354z M246.191,429.613c0.463,0,0.773-0.154,1.082-0.386
		c0.309-0.31,0.463-0.618,0.463-1.082s-0.154-0.85-0.386-1.082c-0.309-0.309-0.618-0.386-1.082-0.386h-3.864v3.014h3.787V429.613z"
		/>
	<path fill="#414042" d="M252.295,437.418l5.332-13.214h2.55l5.332,13.214h-2.55l-1.082-2.781h-5.795L255,437.418H252.295z
		 M256.932,432.241h3.864l-1.932-4.868L256.932,432.241z"/>
	<path fill="#414042" d="M269.295,437.418H266.9v-13.214h2.627l6.646,9.428v-9.428h2.396v13.214h-2.705l-6.646-9.427v9.427H269.295z
		"/>
	<path fill="#414042" d="M289.85,437.418l-4.868-5.718l-1.314,1.236v4.559h-2.396v-13.213h2.396v5.486l5.873-5.486h3.477
		l-6.336,5.872l6.259,7.418h-3.091V437.418z"/>
	<path fill="#414042" d="M297.577,426.522v3.014h6.955v2.396h-6.955v3.014h6.955v2.396h-9.272v-13.214h9.272v2.396H297.577z"/>
	<path fill="#414042" d="M309.245,437.418h-2.396v-13.214h2.628l6.646,9.428v-9.428h2.396v13.214h-2.628l-6.646-9.427V437.418z"/>
</g>
<g>
	<path fill="#76851C" d="M329.259,437.418l-3.94-5.409h-2.087v5.409h-2.396v-6.646v-6.646h6.26c0.695,0,1.391,0.155,2.009,0.541
		c0.618,0.31,1.082,0.773,1.391,1.391c0.31,0.619,0.541,1.237,0.541,2.01c0,0.927-0.231,1.7-0.772,2.396s-1.236,1.159-2.086,1.391
		l4.018,5.563H329.259z M327.096,429.613c0.463,0,0.772-0.154,1.082-0.386c0.309-0.31,0.463-0.618,0.463-1.082
		s-0.154-0.85-0.386-1.082c-0.31-0.309-0.618-0.386-1.082-0.386h-3.864v3.014h3.787V429.613z"/>
	<path fill="#76851C" d="M336.214,426.522v3.014h6.954v2.396h-6.954v3.014h6.954v2.396h-9.272v-13.214h9.272v2.396H336.214z"/>
	<path fill="#76851C" d="M344.791,437.418l5.332-13.214h2.55l5.332,13.214h-2.551l-1.081-2.781H348.5l-1.082,2.781H344.791z
		 M349.428,432.241h3.863l-1.932-4.868L349.428,432.241z"/>
	<path fill="#76851C" d="M364.264,437.418h-4.791v-13.214h4.791c1.236,0,2.318,0.31,3.322,0.851
		c1.005,0.541,1.777,1.391,2.318,2.396c0.541,1.004,0.851,2.163,0.851,3.399s-0.31,2.396-0.851,3.4s-1.391,1.777-2.318,2.396
		C366.582,437.109,365.5,437.418,364.264,437.418z M361.791,435.022h2.473c0.772,0,1.546-0.154,2.164-0.541
		c0.618-0.386,1.158-0.85,1.468-1.545c0.387-0.618,0.541-1.391,0.541-2.164c0-0.772-0.154-1.545-0.541-2.163
		s-0.85-1.159-1.468-1.546c-0.618-0.386-1.314-0.541-2.164-0.541h-2.473V435.022z"/>
	<path fill="#76851C" d="M377.709,437.728c-0.85,0-1.623-0.155-2.318-0.387c-0.695-0.309-1.313-0.618-1.854-1.159
		c-0.541-0.464-0.85-1.004-1.004-1.623l2.317-0.695c0.078,0.387,0.387,0.695,0.928,1.005s1.236,0.541,2.009,0.541
		c0.541,0,1.082-0.077,1.546-0.231c0.464-0.155,0.772-0.387,1.082-0.696c0.231-0.309,0.386-0.54,0.386-0.85
		c0-0.387-0.231-0.695-0.618-1.082c-0.386-0.309-0.927-0.541-1.545-0.618c-0.232-0.077-0.464-0.077-0.618-0.077
		c-0.155,0-0.31-0.077-0.31-0.077c-0.618-0.077-0.927-0.154-1.082-0.231c-0.695-0.155-1.391-0.387-1.932-0.773
		c-0.541-0.386-1.004-0.772-1.313-1.313s-0.464-1.082-0.464-1.7c0-0.695,0.232-1.391,0.695-1.932
		c0.464-0.618,1.005-1.082,1.777-1.391c0.773-0.31,1.623-0.541,2.473-0.541c1.159,0,2.087,0.231,3.014,0.772
		c0.851,0.541,1.469,1.159,1.777,2.01l-2.24,0.85c-0.155-0.31-0.387-0.618-0.851-0.85c-0.464-0.232-1.004-0.387-1.622-0.387
		c-0.619,0-1.237,0.154-1.777,0.464c-0.541,0.309-0.773,0.618-0.773,1.081c0,0.31,0.155,0.541,0.464,0.851
		c0.31,0.309,0.772,0.464,1.236,0.541l0,0h0.077l0.928,0.154c0.077,0,0.386,0.077,0.927,0.154c0.773,0.155,1.546,0.387,2.164,0.773
		c0.618,0.386,1.082,0.85,1.468,1.468c0.387,0.541,0.541,1.159,0.541,1.854c0,0.772-0.231,1.468-0.695,2.086
		s-1.082,1.159-1.932,1.469C379.563,437.572,378.714,437.728,377.709,437.728z"/>
</g>
<path fill="#76851C" d="M333.046,403.264v2.473h-2.087v-12.441v-1.159v-2.55l0,0c0.077-0.386-0.154-0.927-0.387-1.313
	c-0.309-0.618-0.772-1.082-0.927-1.7c-0.154-1.004,0-2.009,0-2.937c0-0.309-0.077-0.927-0.231-0.927
	c-1.159-0.154-1.005-1.082-1.159-1.854c-0.232-1.391-0.31-1.391-1.623-0.927c-0.231,0.077-0.541,0.155-0.928,0.309
	c0-1.004,0.078-1.932,0-2.859c-0.077-1.005-0.463-1.159-1.313-0.541c-0.464,0.386-1.004,0.695-1.468,1.082
	c-0.077-1.313-0.077-2.55-0.154-3.709c0-0.309-0.155-0.85-0.464-0.927c-0.31-0.077-0.618,0.309-0.851,0.541
	c-0.695,0.695-1.313,1.468-2.163,2.473c-0.154-1.545-0.232-2.705-0.387-3.941c-0.077-0.386-0.386-1.004-0.541-1.004
	c-0.154,0-0.541,0.463-1.004,0.772c0-0.463,0.077-1.004,0-1.391c-0.155-0.464-0.232-1.314-0.773-1.314
	c-0.541,0.155-1.004,0.618-1.159,1.082c-1.622,4.559-3.94,8.809-6.645,12.827c-0.31,0.464-0.464,0.927-0.464,1.545v0.155v20.863
	h-2.087v-2.473h-2.241v6.8h2.086v-2.086h2.241v1.7v2.396c0,0,0.077,4.791,4.636,4.791c2.628,0,4.637,0,5.95,0
	c0.928,0,1.469,0,1.469,0c1.313,0,3.322,0,5.949,0c4.56,0,4.637-4.791,4.637-4.791v-2.396v-1.7h2.241v2.086h2.086v-6.8h-2.24
	V403.264z M328.796,383.25c0,0.155,0,0.309,0.077,0.464c-1.623,0.077-3.246,0.154-4.868,0.231c0,0.078,0,0.232,0,0.309
	c1.545,0,3.168,0,4.713,0c0,0.155,0,0.232,0,0.387c-1.313,0.154-2.55,0.231-3.863,0.386c0,0.077,0,0.232,0,0.309
	c1.236,0,2.55,0,3.786,0c0,0.154,0,0.232,0,0.386c-0.927,0.077-1.777,0.155-2.704,0.232c0,0.077,0,0.232,0,0.309
	c0.85,0.077,1.777,0.077,2.627,0.154c0,0.078,0,0.232,0,0.309c-1.004,0.078-2.009,0.155-3.245,0.309
	c1.313,1.005,3.014-0.541,4.173,1.159c-2.164,0.077-4.096,0.232-5.95,0.232c-3.478,0.077-6.955,0.155-10.354,0.309
	c-1.159,0.077-1.854-0.386-2.164-1.391c-0.309-0.85-1.004-2.859-0.695-2.782C311.255,384.718,322.613,383.096,328.796,383.25z
	 M327.559,380.545c0.078,0.541,0.155,1.082,0.155,1.545c0,0.232-0.387,0.541-0.618,0.618c-3.4,0.309-6.878,0.618-9.659,0.85
	C320.296,382.632,323.85,381.627,327.559,380.545z M325.086,377.146c0.078,0,0.078,0.618,0.078,0.85
	c-0.078,1.004-0.155,1.545-0.31,2.55c0,0.232-0.464,0.464-0.695,0.541c-3.555,0.927-7.109,1.854-10.587,2.782
	c0-0.077-0.077-0.232-0.077-0.309C317.514,382.091,321.609,379.85,325.086,377.146z M322.228,374.518
	c-0.077,1.391-0.232,2.705-0.31,4.018c0,0.232-0.309,0.464-0.541,0.696c-1.699,1.313-7.031,3.632-8.809,4.018
	C315.582,380.468,318.827,377.609,322.228,374.518z M312.336,381.473c1.469-3.014,2.859-5.95,4.25-8.809
	C316.896,376.295,314.346,378.768,312.336,381.473z M318.363,372.973c0,2.241,0.541,4.559-1.854,6.182
	c-1.313,0.927-2.55,2.009-3.786,3.013C314.654,379.155,316.509,376.141,318.363,372.973z M315.041,402.8
	c-1.469,0-2.705-1.236-2.705-2.704h5.332C317.745,401.563,316.586,402.8,315.041,402.8z M324.236,402.8
	c-1.468,0-2.704-1.236-2.704-2.704h5.331C326.941,401.563,325.704,402.8,324.236,402.8z M329.104,389.509
	c-4.019,0.154-8.036,0.231-12.055,0.309c-1.545,0.077-3.168,0-4.714,0.077c-0.85,0-1.545-0.232-1.854-1.004
	c-0.541-1.236-1.004-2.55-1.391-3.941c-0.077-0.387,0.077-1.005,0.31-1.314c2.781-4.172,5.177-8.5,6.8-13.213
	c0-0.077,0.154-0.155,0.231-0.232c0.077,0,0.154,0.077,0.232,0.077c-0.464,1.391-0.851,2.859-1.469,4.096
	c-1.545,3.014-3.168,5.873-4.868,8.809c-0.309,0.618-0.618,0.927-0.541,1.854c0.154,1.391,0.928,3.477,1.854,4.018
	c0.31,0.232,0.851,0.232,1.236,0.232c5.332-0.155,10.664-0.309,15.996-0.464c0.463,0,0.695-0.077,1.159,0
	c0,0.155,0.231,0.541,0.231,0.696C329.877,389.509,329.491,389.509,329.104,389.509z"/>
</svg>
